<?xml version="1.0" encoding="UTF-8"?>
<svg width="200" height="200" viewBox="0 0 200 200" fill="none" xmlns="http://www.w3.org/2000/svg">
  <!-- Background Circle with Gradient -->
  <circle cx="100" cy="100" r="90" fill="url(#backgroundGradient)" />
  
  <!-- Abstract Moon Shape -->
  <path d="M100 30C61.09 30 30 61.09 30 100C30 138.91 61.09 170 100 170C138.91 170 170 138.91 170 100C170 61.09 138.91 30 100 30ZM100 160C66.86 160 40 133.14 40 100C40 66.86 66.86 40 100 40C133.14 40 160 66.86 160 100C160 133.14 133.14 160 100 160Z" 
        fill="#F8F5FF" />
  
  <!-- Abstract Petals/Leaves -->
  <path d="M100 35C84.54 35 70.12 40.16 58.58 49.01C62.71 45.41 67.7 43 73.15 43C85.37 43 95.26 52.89 95.26 65.11C95.26 77.33 85.37 87.22 73.15 87.22C67.7 87.22 62.71 84.81 58.58 81.21C70.12 90.06 84.54 95.22 100 95.22C115.46 95.22 129.88 90.06 141.42 81.21C137.29 84.81 132.3 87.22 126.85 87.22C114.63 87.22 104.74 77.33 104.74 65.11C104.74 52.89 114.63 43 126.85 43C132.3 43 137.29 45.41 141.42 49.01C129.88 40.16 115.46 35 100 35Z" 
        fill="url(#petalGradient)" />
  
  <!-- Center Glow -->
  <circle cx="100" cy="100" r="20" fill="url(#centerGlow)" />
  
  <!-- Text -->
  <text x="100" y="150" font-family="'Helvetica Neue', Arial, sans-serif" font-size="16" font-weight="500" text-anchor="middle" fill="#4A3A6B">MOON PURE GLOW</text>
  
  <!-- Gradients -->
  <defs>
    <!-- Background Gradient -->
    <linearGradient id="backgroundGradient" x1="0%" y1="0%" x2="100%" y2="100%">
      <stop offset="0%" stop-color="#F5F0FF" />
      <stop offset="100%" stop-color="#E8E2FF" />
    </linearGradient>
    
    <!-- Petal Gradient -->
    <linearGradient id="petalGradient" x1="73.15" y1="43" x2="126.85" y2="87.22" gradientUnits="userSpaceOnUse">
      <stop stop-color="#C4A8FF" />
      <stop offset="0.5" stop-color="#B08BFF" />
      <stop offset="1" stop-color="#9D6EFF" />
    </linearGradient>
    
    <!-- Center Glow -->
    <radialGradient id="centerGlow" cx="0" cy="0" r="1" gradientUnits="userSpaceOnUse" gradientTransform="translate(100 100) scale(20)">
      <stop stop-color="#FFFFFF" stop-opacity="0.8" />
      <stop offset="1" stop-color="#F0E5FF" stop-opacity="0" />
    </radialGradient>
  </defs>
</svg>
